<svg aria-hidden="true" style="position: absolute; width: 0; height: 0; overflow: hidden;" xmlns="http://www.w3.org/2000/svg">
  <defs>
<symbol id="icon-close" viewBox="0 0 32 32">
<path d="M4 4L28 28" stroke="black" stroke-width="2"></path>
<path d="M28 4L4 28" stroke="black" stroke-width="2"></path>
</symbol>
<symbol id="icon-email-black" viewBox="0 0 24 32">
<path d="M20 8h-16c-1.1 0-1.99 0.9-1.99 2l-0.010 12c0 1.1 0.9 2 2 2h16c1.1 0 2-0.9 2-2v-12c0-1.1-0.9-2-2-2zM19.6 12.25l-7.070 4.42c-0.32 0.2-0.74 0.2-1.060 0l-7.070-4.42c-0.25-0.16-0.4-0.43-0.4-0.72 0-0.67 0.73-1.070 1.3-0.72l6.7 4.19 6.7-4.19c0.57-0.35 1.3 0.050 1.3 0.72 0 0.29-0.15 0.56-0.4 0.72z"></path>
</symbol>
<symbol id="icon-phone-black" viewBox="0 0 32 32">
<path d="M6 2L26 2C27.1 2 28 2.9 28 4L28 28C28 29.1 27.1 30 26 30L6 30C4.9 30 4 29.1 4 28L4 4C4 2.9 4.9 2 6 2Z"></path>
</symbol>  
<symbol id="icon-personal-name" viewBox="0 0 32 32">
<circle cx="16" cy="12" r="6"></circle>
<rect x="10" y="20" width="12" height="8" rx="2"></rect>
</symbol>
<symbol id="icon-footer-facebook" viewBox="0 0 38 32">
<path fill="#fff" style="fill: var(--color5, #fff)" d="M38.4 0l-38.4 18 12.272 3.788 18.928-14.788-14.397 16.186 0.012 0.004-0.014-0.004v8.814l6.882-6.691 8.718 2.691 6-28z"></path>
</symbol>
<symbol id="icon-checkbox-icon" viewBox="0 0 32 32">
<path stroke-linejoin="miter" stroke-linecap="butt" stroke-miterlimit="4" stroke-width="2" d="M4 1h24c1.657 0 3 1.343 3 3v24c0 1.657-1.343 3-3 3h-24c-1.657 0-3-1.343-3-3v-24c0-1.657 1.343-3 3-3z"></path>
</symbol>
</defs>
</svg>
